<mxfile host="app.diagrams.net" agent="Mozilla/5.0 (Windows NT 10.0; Win64; x64; rv:136.0) Gecko/20100101 Firefox/136.0" version="26.1.1">
  <diagram name="Page-1" id="DHxodrwtwDE0llLIu0rz">
    <mxGraphModel grid="1" page="1" gridSize="10" guides="1" tooltips="1" connect="1" arrows="1" fold="1" pageScale="1" pageWidth="850" pageHeight="1100" math="0" shadow="0">
      <root>
        <mxCell id="0" />
        <mxCell id="1" parent="0" />
        <mxCell id="nDxzsnTNhKEraXrghMvO-1" value="&lt;div style=&quot;color: #ffffff;background-color: #002451;font-family: Monocraft, Consolas, &#39;Courier New&#39;, monospace;font-weight: normal;font-size: 14px;line-height: 19px;white-space: pre;&quot;&gt;&lt;div&gt;&lt;span style=&quot;color: #ffffff;&quot;&gt;{&lt;/span&gt;&lt;/div&gt;&lt;div&gt;&lt;span style=&quot;color: #ffffff;&quot;&gt;&amp;nbsp; &amp;nbsp; &amp;nbsp; &amp;nbsp; &lt;/span&gt;&lt;span style=&quot;color: #ff9da4;&quot;&gt;mission_name&lt;/span&gt;&lt;span style=&quot;color: #ffffff;&quot;&gt;: &lt;/span&gt;&lt;span style=&quot;color: #d1f1a9;&quot;&gt;&quot;Mission&quot;&lt;/span&gt;&lt;span style=&quot;color: #ffffff;&quot;&gt;,&lt;/span&gt;&lt;/div&gt;&lt;div&gt;&lt;span style=&quot;color: #ffffff;&quot;&gt;&amp;nbsp; &amp;nbsp; &amp;nbsp; &amp;nbsp; &lt;/span&gt;&lt;span style=&quot;color: #ff9da4;&quot;&gt;mission_id&lt;/span&gt;&lt;span style=&quot;color: #ffffff;&quot;&gt;: &lt;/span&gt;&lt;span style=&quot;color: #ff9da4;&quot;&gt;Math&lt;/span&gt;&lt;span style=&quot;color: #bbdaff;&quot;&gt;.&lt;/span&gt;&lt;span style=&quot;color: #bbdaff;&quot;&gt;random&lt;/span&gt;&lt;span style=&quot;color: #ffffff;&quot;&gt;(),&lt;/span&gt;&lt;/div&gt;&lt;div&gt;&lt;span style=&quot;color: #ffffff;&quot;&gt;&amp;nbsp; &amp;nbsp; &amp;nbsp; &amp;nbsp; &lt;/span&gt;&lt;span style=&quot;color: #ff9da4;&quot;&gt;mission_status&lt;/span&gt;&lt;span style=&quot;color: #ffffff;&quot;&gt;: &lt;/span&gt;&lt;span style=&quot;color: #d1f1a9;&quot;&gt;&quot;Inactive&quot;&lt;/span&gt;&lt;span style=&quot;color: #ffffff;&quot;&gt;,&lt;/span&gt;&lt;/div&gt;&lt;div&gt;&lt;span style=&quot;color: #ffffff;&quot;&gt;&amp;nbsp; &amp;nbsp; &amp;nbsp; &amp;nbsp; &lt;/span&gt;&lt;span style=&quot;color: #ff9da4;&quot;&gt;isSubmitted&lt;/span&gt;&lt;span style=&quot;color: #ffffff;&quot;&gt;: &lt;/span&gt;&lt;span style=&quot;color: #ffc58f;&quot;&gt;false&lt;/span&gt;&lt;span style=&quot;color: #ffffff;&quot;&gt;,&lt;/span&gt;&lt;/div&gt;&lt;div&gt;&lt;span style=&quot;color: #ffffff;&quot;&gt;&amp;nbsp; &amp;nbsp; &amp;nbsp; &amp;nbsp; &lt;/span&gt;&lt;span style=&quot;color: #ff9da4;&quot;&gt;zones&lt;/span&gt;&lt;span style=&quot;color: #ffffff;&quot;&gt;: {&lt;/span&gt;&lt;/div&gt;&lt;div&gt;&lt;span style=&quot;color: #ffffff;&quot;&gt;&amp;nbsp; &amp;nbsp; &amp;nbsp; &amp;nbsp; &amp;nbsp; &lt;/span&gt;&lt;span style=&quot;color: #ff9da4;&quot;&gt;keep_in_zones&lt;/span&gt;&lt;span style=&quot;color: #ffffff;&quot;&gt;: [],&lt;/span&gt;&lt;/div&gt;&lt;div&gt;&lt;span style=&quot;color: #ffffff;&quot;&gt;&amp;nbsp; &amp;nbsp; &amp;nbsp; &amp;nbsp; &amp;nbsp; &lt;/span&gt;&lt;span style=&quot;color: #ff9da4;&quot;&gt;keep_out_zones&lt;/span&gt;&lt;span style=&quot;color: #ffffff;&quot;&gt;: []&lt;/span&gt;&lt;/div&gt;&lt;div&gt;&lt;span style=&quot;color: #ffffff;&quot;&gt;&amp;nbsp; &amp;nbsp; &amp;nbsp; &amp;nbsp; },&lt;/span&gt;&lt;/div&gt;&lt;div&gt;&lt;span style=&quot;color: #ffffff;&quot;&gt;&amp;nbsp; &amp;nbsp; &amp;nbsp; &amp;nbsp; &lt;/span&gt;&lt;span style=&quot;color: #ff9da4;&quot;&gt;vehicles&lt;/span&gt;&lt;span style=&quot;color: #ffffff;&quot;&gt;: {&lt;/span&gt;&lt;/div&gt;&lt;div&gt;&lt;span style=&quot;color: #ffffff;&quot;&gt;&amp;nbsp; &amp;nbsp; &amp;nbsp; &amp;nbsp; &amp;nbsp; &lt;/span&gt;&lt;span style=&quot;color: #ff9da4;&quot;&gt;ERU&lt;/span&gt;&lt;span style=&quot;color: #ffffff;&quot;&gt;: {&lt;/span&gt;&lt;/div&gt;&lt;div&gt;&lt;span style=&quot;color: #ffffff;&quot;&gt;&amp;nbsp; &amp;nbsp; &amp;nbsp; &amp;nbsp; &amp;nbsp; &amp;nbsp; &lt;/span&gt;&lt;span style=&quot;color: #ff9da4;&quot;&gt;vehicle_name&lt;/span&gt;&lt;span style=&quot;color: #ffffff;&quot;&gt;: &lt;/span&gt;&lt;span style=&quot;color: #d1f1a9;&quot;&gt;&quot;ERU&quot;&lt;/span&gt;&lt;span style=&quot;color: #ffffff;&quot;&gt;,&lt;/span&gt;&lt;/div&gt;&lt;div&gt;&lt;span style=&quot;color: #ffffff;&quot;&gt;&amp;nbsp; &amp;nbsp; &amp;nbsp; &amp;nbsp; &amp;nbsp; &amp;nbsp; &lt;/span&gt;&lt;span style=&quot;color: #ff9da4;&quot;&gt;current_stage&lt;/span&gt;&lt;span style=&quot;color: #ffffff;&quot;&gt;: &lt;/span&gt;&lt;span style=&quot;color: #ffc58f;&quot;&gt;0&lt;/span&gt;&lt;span style=&quot;color: #ffffff;&quot;&gt;,&lt;/span&gt;&lt;/div&gt;&lt;div&gt;&lt;span style=&quot;color: #ffffff;&quot;&gt;&amp;nbsp; &amp;nbsp; &amp;nbsp; &amp;nbsp; &amp;nbsp; &amp;nbsp; &lt;/span&gt;&lt;span style=&quot;color: #ff9da4;&quot;&gt;patient_status&lt;/span&gt;&lt;span style=&quot;color: #ffffff;&quot;&gt;: &lt;/span&gt;&lt;span style=&quot;color: #ffc58f;&quot;&gt;null&lt;/span&gt;&lt;span style=&quot;color: #ffffff;&quot;&gt;,&lt;/span&gt;&lt;/div&gt;&lt;div&gt;&lt;span style=&quot;color: #ffffff;&quot;&gt;&amp;nbsp; &amp;nbsp; &amp;nbsp; &amp;nbsp; &amp;nbsp; &amp;nbsp; &lt;/span&gt;&lt;span style=&quot;color: #ff9da4;&quot;&gt;stages&lt;/span&gt;&lt;span style=&quot;color: #ffffff;&quot;&gt;: []&lt;/span&gt;&lt;/div&gt;&lt;div&gt;&lt;span style=&quot;color: #ffffff;&quot;&gt;&amp;nbsp; &amp;nbsp; &amp;nbsp; &amp;nbsp; &amp;nbsp; },&lt;/span&gt;&lt;/div&gt;&lt;div&gt;&lt;span style=&quot;color: #ffffff;&quot;&gt;&amp;nbsp; &amp;nbsp; &amp;nbsp; &amp;nbsp; &amp;nbsp; &lt;/span&gt;&lt;span style=&quot;color: #ff9da4;&quot;&gt;MEA&lt;/span&gt;&lt;span style=&quot;color: #ffffff;&quot;&gt;: {&lt;/span&gt;&lt;/div&gt;&lt;div&gt;&lt;span style=&quot;color: #ffffff;&quot;&gt;&amp;nbsp; &amp;nbsp; &amp;nbsp; &amp;nbsp; &amp;nbsp; &amp;nbsp; &lt;/span&gt;&lt;span style=&quot;color: #ff9da4;&quot;&gt;vehicle_name&lt;/span&gt;&lt;span style=&quot;color: #ffffff;&quot;&gt;: &lt;/span&gt;&lt;span style=&quot;color: #d1f1a9;&quot;&gt;&quot;MEA&quot;&lt;/span&gt;&lt;span style=&quot;color: #ffffff;&quot;&gt;,&lt;/span&gt;&lt;/div&gt;&lt;div&gt;&lt;span style=&quot;color: #ffffff;&quot;&gt;&amp;nbsp; &amp;nbsp; &amp;nbsp; &amp;nbsp; &amp;nbsp; &amp;nbsp; &lt;/span&gt;&lt;span style=&quot;color: #ff9da4;&quot;&gt;current_stage&lt;/span&gt;&lt;span style=&quot;color: #ffffff;&quot;&gt;: &lt;/span&gt;&lt;span style=&quot;color: #ffc58f;&quot;&gt;0&lt;/span&gt;&lt;span style=&quot;color: #ffffff;&quot;&gt;,&lt;/span&gt;&lt;/div&gt;&lt;div&gt;&lt;span style=&quot;color: #ffffff;&quot;&gt;&amp;nbsp; &amp;nbsp; &amp;nbsp; &amp;nbsp; &amp;nbsp; &amp;nbsp; &lt;/span&gt;&lt;span style=&quot;color: #ff9da4;&quot;&gt;patient_status&lt;/span&gt;&lt;span style=&quot;color: #ffffff;&quot;&gt;: &lt;/span&gt;&lt;span style=&quot;color: #ffc58f;&quot;&gt;null&lt;/span&gt;&lt;span style=&quot;color: #ffffff;&quot;&gt;,&lt;/span&gt;&lt;/div&gt;&lt;div&gt;&lt;span style=&quot;color: #ffffff;&quot;&gt;&amp;nbsp; &amp;nbsp; &amp;nbsp; &amp;nbsp; &amp;nbsp; &amp;nbsp; &lt;/span&gt;&lt;span style=&quot;color: #ff9da4;&quot;&gt;stages&lt;/span&gt;&lt;span style=&quot;color: #ffffff;&quot;&gt;: []&lt;/span&gt;&lt;/div&gt;&lt;div&gt;&lt;span style=&quot;color: #ffffff;&quot;&gt;&amp;nbsp; &amp;nbsp; &amp;nbsp; &amp;nbsp; &amp;nbsp; },&lt;/span&gt;&lt;/div&gt;&lt;div&gt;&lt;span style=&quot;color: #ffffff;&quot;&gt;&amp;nbsp; &amp;nbsp; &amp;nbsp; &amp;nbsp; &amp;nbsp; &lt;/span&gt;&lt;span style=&quot;color: #ff9da4;&quot;&gt;MRA&lt;/span&gt;&lt;span style=&quot;color: #ffffff;&quot;&gt;: {&lt;/span&gt;&lt;/div&gt;&lt;div&gt;&lt;span style=&quot;color: #ffffff;&quot;&gt;&amp;nbsp; &amp;nbsp; &amp;nbsp; &amp;nbsp; &amp;nbsp; &amp;nbsp; &lt;/span&gt;&lt;span style=&quot;color: #ff9da4;&quot;&gt;vehicle_name&lt;/span&gt;&lt;span style=&quot;color: #ffffff;&quot;&gt;: &lt;/span&gt;&lt;span style=&quot;color: #d1f1a9;&quot;&gt;&quot;MRA&quot;&lt;/span&gt;&lt;span style=&quot;color: #ffffff;&quot;&gt;,&lt;/span&gt;&lt;/div&gt;&lt;div&gt;&lt;span style=&quot;color: #ffffff;&quot;&gt;&amp;nbsp; &amp;nbsp; &amp;nbsp; &amp;nbsp; &amp;nbsp; &amp;nbsp; &lt;/span&gt;&lt;span style=&quot;color: #ff9da4;&quot;&gt;current_stage&lt;/span&gt;&lt;span style=&quot;color: #ffffff;&quot;&gt;: &lt;/span&gt;&lt;span style=&quot;color: #ffc58f;&quot;&gt;0&lt;/span&gt;&lt;span style=&quot;color: #ffffff;&quot;&gt;,&lt;/span&gt;&lt;/div&gt;&lt;div&gt;&lt;span style=&quot;color: #ffffff;&quot;&gt;&amp;nbsp; &amp;nbsp; &amp;nbsp; &amp;nbsp; &amp;nbsp; &amp;nbsp; &lt;/span&gt;&lt;span style=&quot;color: #ff9da4;&quot;&gt;patient_status&lt;/span&gt;&lt;span style=&quot;color: #ffffff;&quot;&gt;: &lt;/span&gt;&lt;span style=&quot;color: #ffc58f;&quot;&gt;null&lt;/span&gt;&lt;span style=&quot;color: #ffffff;&quot;&gt;,&lt;/span&gt;&lt;/div&gt;&lt;div&gt;&lt;span style=&quot;color: #ffffff;&quot;&gt;&amp;nbsp; &amp;nbsp; &amp;nbsp; &amp;nbsp; &amp;nbsp; &amp;nbsp; &lt;/span&gt;&lt;span style=&quot;color: #ff9da4;&quot;&gt;stages&lt;/span&gt;&lt;span style=&quot;color: #ffffff;&quot;&gt;: []&lt;/span&gt;&lt;/div&gt;&lt;div&gt;&lt;span style=&quot;color: #ffffff;&quot;&gt;&amp;nbsp; &amp;nbsp; &amp;nbsp; &amp;nbsp; &amp;nbsp; }&lt;/span&gt;&lt;/div&gt;&lt;div&gt;&lt;span style=&quot;color: #ffffff;&quot;&gt;&amp;nbsp; &amp;nbsp; &amp;nbsp; &amp;nbsp; }&lt;/span&gt;&lt;/div&gt;&lt;div&gt;&lt;span style=&quot;color: #ffffff;&quot;&gt;&amp;nbsp; &amp;nbsp; &amp;nbsp; }&lt;/span&gt;&lt;/div&gt;&lt;/div&gt;" style="text;whiteSpace=wrap;html=1;" vertex="1" parent="1">
          <mxGeometry x="60" y="70" width="300" height="590" as="geometry" />
        </mxCell>
      </root>
    </mxGraphModel>
  </diagram>
</mxfile>
